<svg width="106.000000" height="60.000000" viewBox="0 0 106 60" fill="none" xmlns="http://www.w3.org/2000/svg" xmlns:xlink="http://www.w3.org/1999/xlink">
	<desc>
			Created with Pixso.
	</desc>
	<defs>
		<clipPath id="clip73601_13">
			<rect id="Logo" rx="0.000000" width="105.000000" height="59.000000" transform="translate(0.500000 0.500000)" fill="white" fill-opacity="0"/>
		</clipPath>
	</defs>
	<rect id="Logo" rx="0.000000" width="105.000000" height="59.000000" transform="translate(0.500000 0.500000)" fill="#2196F3" fill-opacity="0"/>
	<g clip-path="url(#clip73601_13)">
		<path id="Vector" d="M36.4 49.1C36.42 49.1 36.43 49.1 36.45 49.11C36.46 49.11 36.47 49.12 36.49 49.13L36.7 49.34C36.53 49.51 36.33 49.64 36.09 49.73C35.82 49.83 35.52 49.88 35.22 49.88C34.94 49.88 34.66 49.84 34.4 49.74C34.17 49.66 33.96 49.53 33.79 49.37C33.61 49.2 33.48 49 33.39 48.79C33.29 48.55 33.25 48.3 33.25 48.05C33.25 47.8 33.3 47.54 33.4 47.31C33.49 47.09 33.64 46.89 33.82 46.73C34.01 46.56 34.23 46.44 34.48 46.35C34.74 46.26 35.03 46.21 35.32 46.22C35.59 46.21 35.85 46.25 36.1 46.34C36.32 46.42 36.52 46.53 36.69 46.67L36.5 46.9C36.49 46.91 36.48 46.92 36.46 46.94C36.44 46.95 36.41 46.95 36.38 46.95C36.36 46.95 36.33 46.94 36.31 46.93L36.21 46.87L36.07 46.79C36.01 46.77 35.95 46.74 35.89 46.72C35.81 46.69 35.72 46.68 35.64 46.66C35.53 46.64 35.42 46.64 35.32 46.64C35.11 46.63 34.9 46.67 34.71 46.74C34.53 46.8 34.37 46.89 34.24 47.02C34.1 47.15 34 47.3 33.93 47.46C33.85 47.65 33.81 47.85 33.82 48.05C33.81 48.25 33.85 48.45 33.93 48.65C33.99 48.81 34.1 48.96 34.23 49.09C34.36 49.21 34.51 49.3 34.68 49.36C34.86 49.43 35.05 49.46 35.25 49.46C35.36 49.46 35.47 49.45 35.58 49.44C35.76 49.42 35.93 49.37 36.08 49.28C36.16 49.24 36.23 49.19 36.3 49.13C36.33 49.11 36.36 49.1 36.4 49.1Z" fill="#AFB1B8" fill-opacity="1.000000" fill-rule="nonzero"/>
		<path id="Vector" d="M42.7 48.05C42.7 48.3 42.65 48.55 42.55 48.79C42.46 49 42.32 49.19 42.14 49.36C41.96 49.52 41.74 49.65 41.5 49.73C40.96 49.91 40.37 49.91 39.84 49.73C39.6 49.65 39.38 49.52 39.2 49.36C39.02 49.19 38.88 48.99 38.78 48.78C38.59 48.3 38.59 47.78 38.78 47.3C38.88 47.09 39.02 46.89 39.2 46.72C39.38 46.56 39.6 46.44 39.84 46.36C40.37 46.18 40.96 46.18 41.5 46.36C41.74 46.45 41.96 46.57 42.14 46.74C42.32 46.9 42.46 47.1 42.55 47.31C42.65 47.54 42.7 47.8 42.7 48.05ZM42.13 48.05C42.13 47.85 42.1 47.65 42.02 47.46C41.96 47.29 41.86 47.14 41.73 47.01C41.6 46.89 41.45 46.8 41.27 46.73C40.88 46.6 40.45 46.6 40.07 46.73C39.89 46.8 39.73 46.89 39.6 47.01C39.47 47.14 39.37 47.29 39.31 47.46C39.17 47.84 39.17 48.26 39.31 48.64C39.37 48.8 39.47 48.96 39.6 49.08C39.73 49.21 39.89 49.3 40.07 49.36C40.45 49.49 40.88 49.49 41.27 49.36C41.45 49.3 41.6 49.21 41.73 49.08C41.86 48.96 41.96 48.8 42.02 48.64C42.1 48.45 42.13 48.25 42.13 48.05Z" fill="#AFB1B8" fill-opacity="1.000000" fill-rule="nonzero"/>
		<path id="Vector" d="M47 48.67L47.05 48.8C47.08 48.76 47.09 48.71 47.12 48.67C47.14 48.63 47.16 48.58 47.19 48.54L48.58 46.34C48.61 46.3 48.63 46.28 48.66 46.27C48.7 46.26 48.74 46.26 48.77 46.26L49.19 46.26L49.19 49.84L48.7 49.84L48.7 47.21C48.7 47.17 48.7 47.13 48.7 47.09C48.7 47.05 48.7 47.01 48.7 46.97L47.3 49.2C47.28 49.24 47.25 49.26 47.21 49.28C47.18 49.3 47.14 49.31 47.09 49.31L47.02 49.31C46.97 49.31 46.93 49.3 46.9 49.28C46.86 49.26 46.83 49.24 46.81 49.2L45.37 46.96C45.37 47 45.37 47.04 45.37 47.09C45.37 47.13 45.37 47.17 45.37 47.2L45.37 49.83L44.9 49.83L44.9 46.26L45.31 46.26C45.35 46.26 45.39 46.26 45.43 46.27C45.46 46.28 45.49 46.31 45.5 46.34L46.93 48.54C46.95 48.58 46.98 48.63 47 48.67Z" fill="#AFB1B8" fill-opacity="1.000000" fill-rule="nonzero"/>
		<path id="Vector" d="M52.24 48.49L52.24 49.83L51.69 49.83L51.69 46.26L52.91 46.26C53.14 46.25 53.37 46.28 53.59 46.34C53.77 46.38 53.93 46.46 54.07 46.56C54.19 46.66 54.28 46.78 54.34 46.91C54.41 47.06 54.44 47.21 54.43 47.37C54.44 47.52 54.4 47.68 54.33 47.82C54.27 47.96 54.17 48.08 54.04 48.18C53.9 48.29 53.73 48.37 53.56 48.42C53.34 48.48 53.12 48.51 52.9 48.5L52.24 48.49ZM52.24 48.11L52.9 48.11C53.04 48.11 53.19 48.09 53.32 48.05C53.43 48.02 53.54 47.97 53.63 47.9C53.71 47.83 53.77 47.75 53.81 47.66C53.86 47.57 53.88 47.47 53.88 47.36C53.88 47.26 53.87 47.16 53.82 47.07C53.78 46.98 53.72 46.9 53.63 46.83C53.42 46.69 53.16 46.62 52.9 46.63L52.24 46.63L52.24 48.11Z" fill="#AFB1B8" fill-opacity="1.000000" fill-rule="nonzero"/>
		<path id="Vector" d="M59.57 49.84L59.14 49.84C59.09 49.84 59.05 49.83 59.02 49.8C58.99 49.78 58.96 49.75 58.95 49.72L58.58 48.86L56.71 48.86L56.33 49.72C56.31 49.75 56.29 49.78 56.26 49.8C56.23 49.83 56.18 49.84 56.14 49.84L55.71 49.84L57.34 46.26L57.91 46.26L59.57 49.84ZM56.87 48.51L58.41 48.51L57.76 47.05C57.71 46.94 57.67 46.83 57.64 46.72L57.57 46.9C57.55 46.96 57.53 47.01 57.51 47.05L56.87 48.51Z" fill="#AFB1B8" fill-opacity="1.000000" fill-rule="nonzero"/>
		<path id="Vector" d="M61.92 46.27C61.96 46.29 61.98 46.31 62.01 46.34L64.39 49.04C64.39 48.99 64.39 48.95 64.39 48.91C64.39 48.87 64.39 48.83 64.39 48.79L64.39 46.26L64.88 46.26L64.88 49.84L64.61 49.84C64.57 49.84 64.53 49.83 64.49 49.82C64.46 49.8 64.43 49.78 64.41 49.75L62.02 47.05C62.03 47.1 62.03 47.14 62.02 47.18C62.02 47.22 62.02 47.25 62.02 47.29L62.02 49.84L61.54 49.84L61.54 46.26L61.83 46.26C61.86 46.26 61.89 46.26 61.92 46.27Z" fill="#AFB1B8" fill-opacity="1.000000" fill-rule="nonzero"/>
		<path id="Vector" d="M68.9 48.41L68.9 49.84L68.35 49.84L68.35 48.41L66.85 46.26L67.33 46.26C67.38 46.26 67.42 46.27 67.45 46.29C67.48 46.31 67.5 46.34 67.52 46.37L68.47 47.76C68.51 47.82 68.54 47.87 68.57 47.93C68.59 47.98 68.61 48.03 68.63 48.08L68.7 47.92C68.73 47.87 68.76 47.81 68.8 47.76L69.73 46.36C69.75 46.33 69.77 46.31 69.8 46.28C69.83 46.26 69.87 46.25 69.92 46.25L70.41 46.25L68.9 48.41Z" fill="#AFB1B8" fill-opacity="1.000000" fill-rule="nonzero"/>
		<path id="Vector" d="M46.73 40.25C46.96 40.28 47.2 40.3 47.45 40.32C51.12 38.89 54.24 36.55 56.39 33.59C58.55 30.63 59.66 27.19 59.57 23.69L55.52 20.16C56.34 23.89 55.96 27.74 54.4 31.29C52.85 34.84 50.19 37.94 46.73 40.25Z" fill="#AFB1B8" fill-opacity="1.000000" fill-rule="nonzero"/>
		<path id="Vector" d="M45.28 40.09L45.39 40.11C49.09 37.8 51.92 34.59 53.49 30.88C55.07 27.17 55.33 23.13 54.24 19.29L48.47 14.27C50.8 18.4 51.74 23.01 51.18 27.58C50.62 32.15 48.57 36.49 45.28 40.09Z" fill="#AFB1B8" fill-opacity="1.000000" fill-rule="nonzero"/>
		<path id="Vector" d="M64.86 27.82C63.88 31.67 61.5 35.14 58.07 37.71C57.07 38.47 55.99 39.14 54.84 39.73C57.63 39.01 60.2 37.75 62.35 36.04C64.49 34.33 66.15 32.21 67.2 29.85L64.86 27.82Z" fill="#AFB1B8" fill-opacity="1.000000" fill-rule="nonzero"/>
		<path id="Vector" d="M63.94 27.26L60.61 24.36C60.55 27.66 59.47 30.89 57.48 33.71C55.49 36.52 52.68 38.83 49.32 40.38L49.34 40.38C50.08 40.38 50.83 40.34 51.57 40.26C54.71 39.15 57.48 37.38 59.64 35.11C61.8 32.84 63.28 30.14 63.94 27.26Z" fill="#AFB1B8" fill-opacity="1.000000" fill-rule="nonzero"/>
		<path id="Vector" d="M45.76 12.16L41.78 8.69C38.23 9.89 35.17 11.99 33.01 14.72C30.85 17.45 29.69 20.68 29.68 23.99L29.68 23.99C29.69 27.65 31.11 31.2 33.7 34.08C36.3 36.97 39.93 39.01 44.02 39.9C47.67 36.04 49.8 31.26 50.12 26.27C50.43 21.29 48.9 16.34 45.76 12.16Z" fill="#AFB1B8" fill-opacity="1.000000" fill-rule="nonzero"/>
		<path id="Vector" d="M73.14 26.72C73.12 22.38 71.13 18.22 67.59 15.15C64.06 12.08 59.27 10.35 54.27 10.33C51.96 10.33 49.67 10.7 47.52 11.43L71.88 32.59C72.71 30.72 73.14 28.73 73.14 26.72Z" fill="#AFB1B8" fill-opacity="1.000000" fill-rule="nonzero"/>
	</g>
</svg>
