<svg width="106.000000" height="60.000000" viewBox="0 0 106 60" fill="none" xmlns="http://www.w3.org/2000/svg" xmlns:xlink="http://www.w3.org/1999/xlink">
	<desc>
			Created with Pixso.
	</desc>
	<defs>
		<clipPath id="clip73601_11">
			<rect id="Logo" rx="0.000000" width="105.000000" height="59.000000" transform="translate(0.500000 0.500000)" fill="white" fill-opacity="0"/>
		</clipPath>
	</defs>
	<rect id="Logo" rx="0.000000" width="105.000000" height="59.000000" transform="translate(0.500000 0.500000)" fill="#2196F3" fill-opacity="0"/>
	<g clip-path="url(#clip73601_11)">
		<path id="Vector" d="M24.14 21.1L24.14 21.1C26.54 21.1 28.48 22.83 28.48 24.96L28.48 24.96C28.48 27.09 26.54 28.82 24.14 28.82L24.14 28.82C21.74 28.82 19.8 27.09 19.8 24.96L19.8 24.96C19.8 22.83 21.74 21.1 24.14 21.1Z" fill="#2196F3" fill-opacity="1.000000" fill-rule="evenodd"/>
		<path id="Vector" d="M56.19 19.86C56.18 16.9 54.86 14.07 52.5 11.97C50.15 9.88 46.96 8.7 43.62 8.69L43.62 8.69C40.29 8.7 37.1 9.88 34.74 11.97C32.39 14.07 31.06 16.9 31.05 19.86L31.05 36.19C31.05 36.19 56.19 33.7 56.19 19.87L56.19 19.86Z" fill="#2196F3" fill-opacity="1.000000" fill-rule="nonzero"/>
		<path id="Vector" d="M11 41.54C11 43.6 11.92 45.58 13.56 47.03C15.2 48.49 17.42 49.31 19.74 49.32C22.06 49.31 24.28 48.49 25.91 47.04C27.55 45.58 28.48 43.61 28.48 41.55L28.48 30.19C28.48 30.19 11 31.92 11 41.54ZM19.74 43.58C19.29 43.58 18.84 43.46 18.47 43.24C18.09 43.01 17.8 42.7 17.62 42.32C17.45 41.95 17.41 41.54 17.49 41.15C17.58 40.75 17.8 40.39 18.12 40.11C18.44 39.82 18.85 39.63 19.29 39.55C19.74 39.47 20.2 39.51 20.62 39.66C21.03 39.82 21.39 40.08 21.64 40.41C21.89 40.75 22.03 41.14 22.03 41.54C22.03 41.81 21.97 42.08 21.86 42.33C21.74 42.57 21.57 42.8 21.36 42.99C21.15 43.18 20.9 43.33 20.62 43.43C20.34 43.53 20.04 43.59 19.74 43.59L19.74 43.58Z" fill="#2196F3" fill-opacity="1.000000" fill-rule="nonzero"/>
		<path id="FOSTER PETERS" d="M41.41 43.27Q41.64 42.8 41.64 42.17L41.64 41.98Q41.64 41.35 41.41 40.87Q41.24 40.51 40.96 40.27Q40.87 40.2 40.77 40.13Q40.68 40.08 40.59 40.04Q40.24 39.88 39.82 39.88Q39.4 39.88 39.05 40.04Q38.96 40.08 38.87 40.13Q38.77 40.2 38.68 40.27Q38.4 40.51 38.23 40.87Q38 41.35 38 41.98L38 42.19Q38.01 42.8 38.24 43.28Q38.4 43.62 38.67 43.85Q38.77 43.94 38.88 44.01Q38.97 44.06 39.07 44.11Q39.41 44.26 39.83 44.26Q40.26 44.26 40.61 44.09Q40.7 44.05 40.78 44Q40.89 43.93 41 43.84Q41.25 43.61 41.41 43.27ZM44.41 42.81Q44.49 42.92 44.49 43.08Q44.49 43.21 44.43 43.31Q44.39 43.38 44.31 43.44Q44.14 43.57 43.82 43.57Q43.33 43.57 43.12 43.32Q42.98 43.15 42.98 42.86L42.1 42.86Q42.1 43.17 42.22 43.42Q42.26 43.51 42.31 43.59Q42.31 43.59 42.32 43.6Q42.53 43.9 42.93 44.08Q43.33 44.26 43.82 44.26Q44.53 44.26 44.95 43.95Q45.13 43.81 45.23 43.63Q45.37 43.39 45.37 43.08Q45.37 42.8 45.26 42.57Q45.18 42.39 45.03 42.25Q44.68 41.91 43.93 41.69Q43.53 41.56 43.32 41.42Q43.17 41.32 43.13 41.19Q43.11 41.13 43.11 41.07Q43.11 40.96 43.15 40.88Q43.2 40.78 43.29 40.71Q43.47 40.58 43.79 40.58Q44.12 40.58 44.31 40.74Q44.35 40.78 44.39 40.83Q44.49 40.98 44.49 41.2L45.37 41.2Q45.37 40.93 45.28 40.71Q45.23 40.61 45.17 40.51Q45.13 40.45 45.08 40.39Q44.9 40.17 44.62 40.04Q44.26 39.88 43.8 39.88Q43.35 39.88 42.98 40.03Q42.62 40.18 42.42 40.45Q42.34 40.56 42.3 40.69Q42.23 40.87 42.23 41.07Q42.23 41.27 42.29 41.45Q42.45 41.85 42.96 42.13Q43.22 42.27 43.68 42.42Q44.14 42.57 44.31 42.7Q44.37 42.75 44.41 42.81ZM78.73 42.81Q78.81 42.92 78.81 43.08Q78.81 43.21 78.75 43.31Q78.71 43.38 78.63 43.44Q78.45 43.57 78.14 43.57Q77.65 43.57 77.44 43.32Q77.3 43.15 77.3 42.86L76.42 42.86Q76.42 43.17 76.53 43.42Q76.57 43.51 76.63 43.59Q76.63 43.59 76.64 43.6Q76.85 43.9 77.24 44.08Q77.65 44.26 78.14 44.26Q78.85 44.26 79.27 43.95Q79.45 43.81 79.55 43.63Q79.69 43.39 79.69 43.08Q79.69 42.8 79.58 42.57Q79.49 42.39 79.35 42.25Q79 41.91 78.25 41.69Q77.85 41.56 77.64 41.42Q77.49 41.32 77.44 41.19Q77.43 41.13 77.43 41.07Q77.43 40.96 77.47 40.88Q77.51 40.78 77.61 40.71Q77.78 40.58 78.11 40.58Q78.44 40.58 78.62 40.74Q78.67 40.78 78.71 40.83Q78.81 40.98 78.81 41.2L79.69 41.2Q79.69 40.93 79.59 40.71Q79.55 40.61 79.49 40.51Q79.45 40.45 79.4 40.39Q79.22 40.17 78.94 40.04Q78.58 39.88 78.12 39.88Q77.67 39.88 77.3 40.03Q76.94 40.18 76.74 40.45Q76.66 40.56 76.62 40.69Q76.55 40.87 76.55 41.07Q76.55 41.27 76.61 41.45Q76.77 41.85 77.27 42.13Q77.54 42.27 78 42.42Q78.45 42.57 78.63 42.7Q78.69 42.75 78.73 42.81ZM35.73 42.46L37.41 42.46L37.41 41.75L35.73 41.75L35.73 40.65L37.62 40.65L37.62 39.94L34.85 39.94L34.85 44.2L35.73 44.2L35.73 42.46ZM47.87 40.65L49.18 40.65L49.18 39.94L45.7 39.94L45.7 40.65L46.99 40.65L46.99 44.2L47.87 44.2L47.87 40.65ZM50.56 42.35L52.24 42.35L52.24 41.66L50.56 41.66L50.56 40.65L52.53 40.65L52.53 39.94L49.68 39.94L49.68 44.2L52.54 44.2L52.54 43.5L50.56 43.5L50.56 42.35ZM53.93 42.64L54.63 42.64L55.43 44.2L56.37 44.2L56.37 44.16L55.45 42.42Q55.83 42.25 56.02 41.95Q56.21 41.66 56.21 41.23Q56.21 40.8 56.01 40.5Q55.93 40.38 55.8 40.27Q55.39 39.94 54.64 39.94L53.05 39.94L53.05 44.2L53.93 44.2L53.93 42.64ZM59.25 44.2L59.25 42.7L60.02 42.7Q60.78 42.7 61.21 42.34Q61.36 42.21 61.46 42.05Q61.64 41.76 61.64 41.35Q61.64 41.02 61.52 40.75Q61.49 40.68 61.45 40.61Q61.39 40.52 61.31 40.43Q61.14 40.24 60.88 40.11Q60.52 39.94 60.04 39.94L58.37 39.94L58.37 44.2L59.25 44.2ZM63.12 42.35L64.81 42.35L64.81 41.66L63.12 41.66L63.12 40.65L65.1 40.65L65.1 39.94L62.24 39.94L62.24 44.2L65.1 44.2L65.1 43.5L63.12 43.5L63.12 42.35ZM67.58 40.65L68.89 40.65L68.89 39.94L65.41 39.94L65.41 40.65L66.7 40.65L66.7 44.2L67.58 44.2L67.58 40.65ZM70.27 42.35L71.96 42.35L71.96 41.66L70.27 41.66L70.27 40.65L72.24 40.65L72.24 39.94L69.39 39.94L69.39 44.2L72.25 44.2L72.25 43.5L70.27 43.5L70.27 42.35ZM73.64 42.64L74.34 42.64L75.14 44.2L76.09 44.2L76.09 44.16L75.16 42.42Q75.55 42.25 75.74 41.95Q75.93 41.66 75.93 41.23Q75.93 40.8 75.73 40.5Q75.64 40.38 75.52 40.27Q75.11 39.94 74.35 39.94L72.77 39.94L72.77 44.2L73.64 44.2L73.64 42.64ZM40.51 40.95Q40.75 41.3 40.75 41.97L40.75 42.18Q40.74 42.85 40.51 43.19Q40.4 43.35 40.26 43.43Q40.07 43.54 39.83 43.54Q39.58 43.54 39.4 43.43Q39.24 43.34 39.14 43.18Q38.9 42.82 38.9 42.17L38.9 41.96Q38.9 41.29 39.14 40.95Q39.24 40.8 39.39 40.71Q39.57 40.6 39.82 40.6Q40.07 40.6 40.25 40.71Q40.4 40.8 40.51 40.95ZM54.64 41.93L53.93 41.93L53.93 40.65L54.64 40.65Q54.99 40.65 55.16 40.82Q55.19 40.85 55.21 40.88Q55.33 41.04 55.33 41.3Q55.33 41.52 55.23 41.67Q55.19 41.72 55.15 41.76Q55.15 41.76 55.14 41.77Q54.96 41.93 54.64 41.93ZM60.04 41.99L59.25 41.99L59.25 40.65L60.06 40.65Q60.32 40.65 60.49 40.78Q60.53 40.81 60.57 40.85Q60.61 40.89 60.64 40.94Q60.75 41.11 60.75 41.35Q60.75 41.6 60.64 41.75Q60.61 41.79 60.57 41.82Q60.39 41.99 60.04 41.99ZM74.35 41.93L73.64 41.93L73.64 40.65L74.35 40.65Q74.7 40.65 74.88 40.82Q74.9 40.85 74.92 40.88Q75.05 41.04 75.05 41.3Q75.05 41.52 74.94 41.67Q74.91 41.72 74.87 41.76Q74.86 41.76 74.86 41.77Q74.68 41.93 74.35 41.93Z" fill="#2196F3" fill-opacity="1.000000" fill-rule="evenodd"/>
	</g>
</svg>
