<svg width="106.000000" height="60.000000" viewBox="0 0 106 60" fill="none" xmlns="http://www.w3.org/2000/svg" xmlns:xlink="http://www.w3.org/1999/xlink">
	<desc>
			Created with Pixso.
	</desc>
	<defs>
		<clipPath id="clip73601_9">
			<rect id="Logo" rx="0.000000" width="105.000000" height="59.000000" transform="translate(0.500000 0.500000)" fill="white" fill-opacity="0"/>
		</clipPath>
	</defs>
	<rect id="Logo" rx="0.000000" width="105.000000" height="59.000000" transform="translate(0.500000 0.500000)" fill="#2196F3" fill-opacity="0"/>
	<g clip-path="url(#clip73601_9)">
		<path id="Vector" d="M53.42 27.4C52.98 26.81 52.76 26.12 52.82 25.41L52.82 22.53C52.82 21.65 53.02 20.98 53.42 20.52C53.82 20.06 54.51 19.83 55.48 19.83C56.4 19.83 57.05 20.03 57.44 20.42C57.86 20.92 58.06 21.53 58.01 22.14L58.01 22.82L56.37 22.82L56.37 22.13C56.38 21.91 56.36 21.68 56.32 21.46C56.3 21.31 56.22 21.17 56.09 21.06C55.92 20.95 55.71 20.89 55.5 20.91C55.27 20.89 55.05 20.95 54.87 21.07C54.73 21.19 54.63 21.34 54.6 21.51C54.55 21.75 54.53 21.98 54.53 22.22L54.53 25.72C54.51 26.06 54.58 26.4 54.74 26.71C54.83 26.81 54.94 26.89 55.07 26.94C55.2 26.99 55.35 27.01 55.5 27C55.71 27.01 55.91 26.96 56.08 26.84C56.21 26.73 56.3 26.58 56.32 26.41C56.36 26.18 56.38 25.95 56.37 25.71L56.37 25L58.01 25L58.01 25.65C58.06 26.29 57.86 26.93 57.45 27.46C57.07 27.89 56.43 28.11 55.48 28.11C54.54 28.11 53.82 27.88 53.42 27.4Z" fill="#AFB1B8" fill-opacity="1.000000" fill-rule="nonzero"/>
		<path id="Vector" d="M60.25 27.43C59.84 26.98 59.63 26.33 59.63 25.46L59.63 22.43C59.63 21.58 59.84 20.93 60.25 20.49C60.67 20.05 61.36 19.83 62.33 19.83C63.3 19.83 63.99 20.05 64.4 20.49C64.81 20.93 65.03 21.58 65.03 22.43L65.03 25.46C65.03 26.32 64.81 26.98 64.39 27.43C63.97 27.88 63.29 28.11 62.33 28.11C61.38 28.11 60.67 27.88 60.25 27.43ZM63.1 26.71C63.24 26.42 63.31 26.12 63.29 25.81L63.29 22.09C63.31 21.79 63.25 21.49 63.1 21.21C63.02 21.11 62.9 21.02 62.76 20.97C62.63 20.92 62.48 20.9 62.33 20.92C62.18 20.9 62.03 20.92 61.9 20.97C61.76 21.03 61.64 21.11 61.56 21.21C61.41 21.49 61.34 21.79 61.36 22.09L61.36 25.83C61.34 26.13 61.41 26.44 61.56 26.72C61.66 26.82 61.77 26.89 61.91 26.95C62.04 27 62.18 27.02 62.33 27.02C62.47 27.02 62.62 27 62.75 26.95C62.88 26.89 63 26.82 63.1 26.72L63.1 26.71Z" fill="#AFB1B8" fill-opacity="1.000000" fill-rule="nonzero"/>
		<path id="Vector" d="M67 19.92L68.77 19.92L70.09 25.51L71.45 19.92L73.17 19.92L73.34 28L72.07 28L71.94 22.38L70.63 28L69.61 28L68.25 22.36L68.12 28L66.84 28L67 19.92Z" fill="#AFB1B8" fill-opacity="1.000000" fill-rule="nonzero"/>
		<path id="Vector" d="M75.33 19.92L78.08 19.92C79.66 19.92 80.46 20.68 80.46 22.21C80.46 23.68 79.62 24.41 77.95 24.41L77.01 24.41L77.01 28L75.32 28L75.33 19.92ZM77.68 23.37C77.84 23.39 78.01 23.38 78.18 23.33C78.34 23.29 78.49 23.21 78.61 23.12C78.81 22.84 78.89 22.52 78.85 22.2C78.86 21.96 78.84 21.71 78.77 21.47C78.75 21.39 78.71 21.31 78.65 21.25C78.59 21.18 78.52 21.13 78.43 21.09C78.2 20.99 77.94 20.94 77.68 20.96L77.02 20.96L77.02 23.37L77.68 23.37Z" fill="#AFB1B8" fill-opacity="1.000000" fill-rule="nonzero"/>
		<path id="Vector" d="M82.9 19.92L84.73 19.92L86.6 28L85.02 28L84.65 26.13L83.02 26.13L82.64 28L81.03 28L82.9 19.92ZM84.46 25.2L83.83 21.81L83.19 25.2L84.46 25.2Z" fill="#AFB1B8" fill-opacity="1.000000" fill-rule="nonzero"/>
		<path id="Vector" d="M88.11 19.92L89.3 19.92L91.58 24.53L91.58 19.92L92.99 19.92L92.99 28L91.86 28L89.57 23.19L89.57 28L88.11 28L88.11 19.92Z" fill="#AFB1B8" fill-opacity="1.000000" fill-rule="nonzero"/>
		<path id="Vector" d="M96.29 24.92L94.4 19.93L95.99 19.93L97.15 23.13L98.23 19.93L99.79 19.93L97.92 24.92L97.92 28L96.29 28L96.29 24.92Z" fill="#AFB1B8" fill-opacity="1.000000" fill-rule="nonzero"/>
		<path id="Vector" d="M56.04 31.53L56.04 31.95L54.66 31.95L54.66 35.23L54.08 35.23L54.08 31.95L52.68 31.95L52.68 31.53L56.04 31.53Z" fill="#AFB1B8" fill-opacity="1.000000" fill-rule="nonzero"/>
		<path id="Vector" d="M60.39 35.23L59.94 35.23C59.89 35.23 59.85 35.22 59.81 35.2C59.78 35.17 59.75 35.14 59.74 35.11L59.34 34.23L57.42 34.23L57.01 35.11C57 35.15 56.98 35.18 56.95 35.21C56.92 35.24 56.87 35.25 56.83 35.25L56.38 35.25L58.08 31.54L58.67 31.54L60.39 35.23ZM57.57 33.86L59.18 33.86L58.5 32.35C58.45 32.23 58.41 32.12 58.37 32C58.35 32.07 58.33 32.14 58.31 32.2L58.25 32.35L57.57 33.86Z" fill="#AFB1B8" fill-opacity="1.000000" fill-rule="nonzero"/>
		<path id="Vector" d="M63.32 34.87C63.42 34.87 63.53 34.87 63.64 34.87C63.73 34.86 63.82 34.84 63.91 34.82C63.99 34.81 64.07 34.78 64.15 34.76C64.23 34.73 64.3 34.7 64.38 34.66L64.38 33.83L63.7 33.83C63.68 33.83 63.67 33.83 63.65 33.83C63.63 33.82 63.62 33.81 63.61 33.8C63.6 33.79 63.59 33.78 63.58 33.77C63.58 33.76 63.57 33.75 63.57 33.74L63.57 33.45L64.89 33.45L64.89 34.87C64.78 34.94 64.67 35 64.55 35.05C64.43 35.1 64.31 35.14 64.18 35.17C64.04 35.21 63.89 35.23 63.75 35.25C63.59 35.26 63.42 35.27 63.26 35.27C62.96 35.27 62.67 35.23 62.4 35.13C62.14 35.05 61.91 34.91 61.72 34.75C61.53 34.58 61.38 34.38 61.28 34.16C61.17 33.91 61.12 33.65 61.12 33.39C61.12 33.13 61.17 32.87 61.28 32.62C61.38 32.4 61.52 32.2 61.72 32.03C61.91 31.86 62.14 31.73 62.4 31.65C62.69 31.55 63 31.51 63.31 31.51C63.46 31.51 63.62 31.52 63.78 31.54C63.92 31.56 64.05 31.59 64.18 31.64C64.3 31.67 64.42 31.72 64.52 31.78C64.63 31.84 64.73 31.9 64.82 31.98L64.65 32.2C64.64 32.22 64.62 32.24 64.6 32.25C64.58 32.27 64.55 32.27 64.52 32.27C64.48 32.27 64.45 32.26 64.42 32.25C64.37 32.22 64.31 32.19 64.25 32.16C64.18 32.12 64.1 32.08 64.02 32.06C63.92 32.02 63.82 31.99 63.71 31.98C63.57 31.95 63.42 31.94 63.28 31.94C63.05 31.94 62.83 31.98 62.62 32.05C62.43 32.11 62.26 32.21 62.12 32.34C61.98 32.47 61.88 32.63 61.81 32.8C61.66 33.2 61.66 33.63 61.81 34.03C61.88 34.21 62 34.37 62.15 34.5C62.29 34.63 62.46 34.73 62.64 34.79C62.86 34.86 63.09 34.88 63.32 34.87Z" fill="#AFB1B8" fill-opacity="1.000000" fill-rule="nonzero"/>
		<path id="Vector" d="M68.73 34.81L70.59 34.81L70.59 35.23L68.16 35.23L68.16 31.53L68.74 31.53L68.73 34.81Z" fill="#AFB1B8" fill-opacity="1.000000" fill-rule="nonzero"/>
		<path id="Vector" d="M72.52 35.23L71.93 35.23L71.93 31.53L72.52 31.53L72.52 35.23Z" fill="#AFB1B8" fill-opacity="1.000000" fill-rule="nonzero"/>
		<path id="Vector" d="M74.68 31.54C74.71 31.56 74.74 31.58 74.76 31.61L77.25 34.4C77.24 34.36 77.24 34.32 77.25 34.27C77.25 34.23 77.25 34.19 77.25 34.15L77.25 31.51L77.75 31.51L77.75 35.23L77.46 35.23C77.42 35.23 77.38 35.23 77.34 35.21C77.3 35.19 77.27 35.17 77.24 35.14L74.76 32.35C74.76 32.39 74.76 32.44 74.76 32.48C74.76 32.52 74.76 32.56 74.76 32.59L74.76 35.23L74.28 35.23L74.28 31.53L74.58 31.53C74.61 31.53 74.65 31.53 74.68 31.54Z" fill="#AFB1B8" fill-opacity="1.000000" fill-rule="nonzero"/>
		<path id="Vector" d="M82.03 31.53L82.03 31.93L79.97 31.93L79.97 33.16L81.64 33.16L81.64 33.55L79.97 33.55L79.97 34.81L82.03 34.81L82.03 35.22L79.37 35.22L79.37 31.53L82.03 31.53Z" fill="#AFB1B8" fill-opacity="1.000000" fill-rule="nonzero"/>
		<path id="Vector" d="M21.16 8.65L46.95 14.97L46.95 37.13L21.16 30.81L21.16 8.65ZM19.5 6.76L19.5 31.89L48.6 39.02L48.6 13.9L19.5 6.76Z" fill="#AFB1B8" fill-opacity="1.000000" fill-rule="nonzero"/>
		<path id="Vector" d="M35.1 50.69L6 43.55L6 18.42L35.1 25.56L35.1 50.69Z" fill="#AFB1B8" fill-opacity="1.000000" fill-rule="nonzero"/>
		<path id="Vector" d="M19.98 8.37L45.44 14.61L34.62 23.96L9.15 17.71L19.98 8.37ZM19.5 6.76L6 18.42L35.1 25.56L48.6 13.9L19.5 6.76Z" fill="#AFB1B8" fill-opacity="1.000000" fill-rule="nonzero"/>
		<path id="Vector" d="M36.74 49.27L48.6 39.03L36.74 36.11L36.74 49.27Z" fill="#AFB1B8" fill-opacity="1.000000" fill-rule="nonzero"/>
	</g>
</svg>
