<svg width="106.000000" height="60.000000" viewBox="0 0 106 60" fill="none" xmlns="http://www.w3.org/2000/svg" xmlns:xlink="http://www.w3.org/1999/xlink">
	<desc>
			Created with Pixso.
	</desc>
	<defs>
		<clipPath id="clip73601_10">
			<rect id="Logo" rx="0.000000" width="105.000000" height="59.000000" transform="translate(0.500000 0.500000)" fill="white" fill-opacity="0"/>
		</clipPath>
	</defs>
	<rect id="Logo" rx="0.000000" width="105.000000" height="59.000000" transform="translate(0.500000 0.500000)" fill="#2196F3" fill-opacity="0"/>
	<g clip-path="url(#clip73601_10)">
		<path id="Vector" d="M26.75 44.73C27 45.01 27.13 45.35 27.12 45.71C27.13 45.94 27.09 46.17 26.99 46.38C26.89 46.6 26.74 46.79 26.55 46.94C26.08 47.27 25.49 47.43 24.9 47.39L22 47.39L22 41.2L24.84 41.2C25.4 41.17 25.96 41.31 26.41 41.61C26.6 41.75 26.74 41.93 26.84 42.13C26.94 42.33 26.98 42.55 26.97 42.77C26.98 43.11 26.87 43.45 26.64 43.72C26.42 43.96 26.11 44.13 25.77 44.2C26.16 44.27 26.5 44.45 26.75 44.73ZM23.35 43.8L24.56 43.8C24.84 43.81 25.11 43.74 25.33 43.59C25.43 43.51 25.5 43.42 25.54 43.32C25.59 43.21 25.61 43.1 25.6 42.98C25.6 42.87 25.59 42.76 25.54 42.66C25.5 42.55 25.43 42.46 25.34 42.38C25.11 42.22 24.83 42.15 24.54 42.17L23.35 42.17L23.35 43.8ZM25.45 46.17C25.55 46.09 25.63 46 25.68 45.89C25.73 45.78 25.75 45.66 25.74 45.54C25.75 45.42 25.73 45.3 25.67 45.19C25.62 45.08 25.55 44.98 25.45 44.91C25.21 44.74 24.92 44.66 24.62 44.68L23.35 44.68L23.35 46.38L24.64 46.38C24.93 46.4 25.22 46.32 25.45 46.17Z" fill="#AFB1B8" fill-opacity="1.000000" fill-rule="nonzero"/>
		<path id="Vector" d="M32.57 47.39L30.98 44.97L30.39 44.97L30.39 47.39L29.03 47.39L29.03 41.2L31.6 41.2C32.25 41.16 32.9 41.35 33.4 41.73C33.76 42.06 33.98 42.51 34.01 42.98C34.05 43.45 33.9 43.91 33.59 44.29C33.27 44.62 32.84 44.84 32.36 44.92L34.05 47.39L32.57 47.39ZM30.39 44.13L31.5 44.13C32.28 44.13 32.66 43.82 32.66 43.19C32.67 43.06 32.65 42.94 32.6 42.82C32.55 42.7 32.48 42.59 32.38 42.49C32.13 42.31 31.82 42.22 31.5 42.24L30.38 42.24L30.39 44.13Z" fill="#AFB1B8" fill-opacity="1.000000" fill-rule="nonzero"/>
		<path id="Vector" d="M40.01 46.15L37.29 46.15L36.81 47.39L35.39 47.39L37.88 41.27L39.42 41.27L41.9 47.39L40.47 47.39L40.01 46.15ZM39.64 45.21L38.65 42.59L37.66 45.21L39.64 45.21Z" fill="#AFB1B8" fill-opacity="1.000000" fill-rule="nonzero"/>
		<path id="Vector" d="M49.32 47.39L47.97 47.39L44.94 43.18L44.94 47.39L43.59 47.39L43.59 41.2L44.94 41.2L47.97 45.43L47.97 41.2L49.32 41.2L49.32 47.39Z" fill="#AFB1B8" fill-opacity="1.000000" fill-rule="nonzero"/>
		<path id="Vector" d="M57.03 45.91C56.75 46.38 56.32 46.76 55.81 47C55.22 47.27 54.56 47.41 53.91 47.39L51.5 47.39L51.5 41.2L53.91 41.2C54.56 41.18 55.22 41.32 55.81 41.58C56.32 41.82 56.75 42.2 57.03 42.66C57.31 43.16 57.45 43.72 57.45 44.29C57.45 44.85 57.31 45.41 57.03 45.91ZM55.48 45.76C55.87 45.35 56.08 44.83 56.08 44.28C56.08 43.74 55.87 43.22 55.48 42.81C55.02 42.43 54.41 42.24 53.79 42.28L52.85 42.28L52.85 46.29L53.79 46.29C54.41 46.32 55.02 46.13 55.48 45.76Z" fill="#AFB1B8" fill-opacity="1.000000" fill-rule="nonzero"/>
		<path id="Vector" d="M40.85 6.76C40.85 6.76 58.29 12.79 57.92 21.51L57.92 36.27C57.92 36.27 40.49 30.24 40.86 21.51L40.85 6.76Z" fill="#AFB1B8" fill-opacity="1.000000" fill-rule="nonzero"/>
		<path id="Vector" d="M73.46 32.81C76.75 30.74 80.56 29.45 84.53 29.07L84.53 24.46C79.95 26.07 76.07 29 73.46 32.81Z" fill="#AFB1B8" fill-opacity="1.000000" fill-rule="nonzero"/>
		<path id="Vector" d="M71.48 34.2C74.17 29.23 78.85 25.4 84.54 23.49L84.54 10.18C84.54 10.18 59.7 18.77 60.23 31.19L60.23 52.2C60.23 52.2 61.33 51.81 63.07 51.09C63.07 50.42 63.07 49.74 63.15 49.06C63.67 43.29 66.66 37.95 71.48 34.2Z" fill="#AFB1B8" fill-opacity="1.000000" fill-rule="nonzero"/>
		<path id="Vector" d="M69.11 42.01C69.25 40.55 69.54 39.11 69.98 37.71C66.98 40.94 65.17 44.96 64.79 49.19C64.75 49.58 64.73 49.98 64.72 50.4C66.14 49.78 67.78 49 69.5 48.09C69.06 46.09 68.93 44.04 69.11 42.01Z" fill="#AFB1B8" fill-opacity="1.000000" fill-rule="nonzero"/>
		<path id="Vector" d="M70.1 42.08C69.94 43.92 70.04 45.78 70.41 47.59C77.19 43.87 84.82 38.13 84.53 31.19L84.53 30.58C79.68 31.08 75.14 33.02 71.62 36.11C70.79 38.02 70.28 40.03 70.1 42.08Z" fill="#AFB1B8" fill-opacity="1.000000" fill-rule="nonzero"/>
	</g>
</svg>
